<svg width="20" height="20" viewBox="0 0 20 20" fill="none" xmlns="http://www.w3.org/2000/svg">
<path d="M11.0889 10.0059C11.0889 9.40774 10.604 8.92285 10.0059 8.92285C9.40774 8.92285 8.92285 9.40774 8.92285 10.0059C8.92285 10.604 9.40774 11.0889 10.0059 11.0889C10.604 11.0889 11.0889 10.604 11.0889 10.0059Z" fill="#13343B"/>
<path d="M7.54726 15.9403C6.05267 16.6442 4.75303 16.8609 3.95159 16.4385C2.20791 15.5179 3.50755 11.8789 6.84329 8.32656C7.1682 7.97999 7.50394 7.64425 7.83968 7.31934" stroke="#13343B" stroke-width="1.5" stroke-miterlimit="10" stroke-linecap="round"/>
<path d="M12.4742 4.05912C13.958 3.35515 15.2576 3.13855 16.0482 3.56093C17.7919 4.48151 16.4923 8.1205 13.1565 11.6728C12.8316 12.0194 12.4959 12.3552 12.1602 12.6692" stroke="#13343B" stroke-width="1.5" stroke-miterlimit="10" stroke-linecap="round"/>
<path d="M15.9403 12.4643C16.6442 13.9589 16.8609 15.2585 16.4385 16.06C15.5179 17.8036 11.8789 16.504 8.32656 13.1683C7.97999 12.8434 7.64425 12.5076 7.31934 12.1719" stroke="#13343B" stroke-width="1.5" stroke-miterlimit="10" stroke-linecap="round"/>
<path d="M4.05912 7.5256C3.35515 6.04184 3.13855 4.7422 3.56093 3.95159C4.48151 2.20791 8.1205 3.50755 11.6728 6.84329C12.0194 7.1682 12.3552 7.50394 12.6692 7.83968" stroke="#13343B" stroke-width="1.5" stroke-miterlimit="10" stroke-linecap="round"/>
</svg>
