<svg width="20" height="20" viewBox="0 0 20 20" fill="none" xmlns="http://www.w3.org/2000/svg">
<path d="M16.5747 16.5344L14.3351 14.2323C14.0122 13.8989 13.4914 13.8677 13.1268 14.1594C11.731 15.2635 9.84556 15.7844 7.84556 15.3469C5.54348 14.8469 3.6789 12.9823 3.15807 10.6802C2.2414 6.53436 5.43931 2.87811 9.44973 3.00311C12.6164 3.10728 15.2831 5.69061 15.481 8.85728C15.5331 9.77395 15.3976 10.6489 15.0956 11.451" stroke="#13343B" stroke-width="1.5" stroke-linecap="round" stroke-linejoin="round"/>
<path d="M10.3399 9.24807C10.3399 8.64993 9.855 8.16504 9.25686 8.16504C8.65872 8.16504 8.17383 8.64993 8.17383 9.24807C8.17383 9.84621 8.65872 10.3311 9.25686 10.3311C9.855 10.3311 10.3399 9.84621 10.3399 9.24807Z" fill="#13343B"/>
</svg>
